<svg width="25" height="23" viewBox="0 0 25 23" fill="none" xmlns="http://www.w3.org/2000/svg">
<path d="M17.3446 19.1387L16.7046 14.0147C16.6139 13.2889 16.2612 12.6213 15.7127 12.1373C15.1643 11.6534 14.458 11.3864 13.7266 11.3867H11.5226C10.7915 11.3869 10.0857 11.6541 9.53765 12.138C8.98966 12.6219 8.63723 13.2893 8.54657 14.0147L7.90557 19.1387C7.87039 19.4202 7.89551 19.706 7.97925 19.9771C8.06299 20.2481 8.20344 20.4983 8.39128 20.7109C8.57911 20.9235 8.81003 21.0937 9.0687 21.2102C9.32737 21.3268 9.60787 21.3869 9.89157 21.3867H15.3596C15.6432 21.3868 15.9236 21.3265 16.1821 21.2099C16.4407 21.0934 16.6715 20.9231 16.8592 20.7105C17.0469 20.4979 17.1873 20.2478 17.271 19.9768C17.3547 19.7058 17.3797 19.4201 17.3446 19.1387Z" stroke="#FAFAFA" stroke-width="2" stroke-linecap="round" stroke-linejoin="round"/>
<path d="M12.6255 7.38672C14.2823 7.38672 15.6255 6.04357 15.6255 4.38672C15.6255 2.72986 14.2823 1.38672 12.6255 1.38672C10.9686 1.38672 9.62549 2.72986 9.62549 4.38672C9.62549 6.04357 10.9686 7.38672 12.6255 7.38672Z" stroke="#FAFAFA" stroke-width="2"/>
<path d="M4.62549 10.3867C5.73006 10.3867 6.62549 9.49129 6.62549 8.38672C6.62549 7.28215 5.73006 6.38672 4.62549 6.38672C3.52092 6.38672 2.62549 7.28215 2.62549 8.38672C2.62549 9.49129 3.52092 10.3867 4.62549 10.3867Z" stroke="#FAFAFA" stroke-width="2"/>
<path d="M20.6255 10.3867C21.7301 10.3867 22.6255 9.49129 22.6255 8.38672C22.6255 7.28215 21.7301 6.38672 20.6255 6.38672C19.5209 6.38672 18.6255 7.28215 18.6255 8.38672C18.6255 9.49129 19.5209 10.3867 20.6255 10.3867Z" stroke="#FAFAFA" stroke-width="2"/>
<path d="M4.62557 13.3867H4.31957C3.84614 13.3867 3.38803 13.5546 3.02675 13.8605C2.66547 14.1665 2.42445 14.5907 2.34657 15.0577L2.01357 17.0577C1.96579 17.3443 1.981 17.6378 2.05814 17.9179C2.13529 18.1979 2.27253 18.4578 2.4603 18.6795C2.64808 18.9011 2.88189 19.0792 3.14547 19.2014C3.40905 19.3235 3.69607 19.3868 3.98657 19.3867H7.62557M20.6256 13.3867H20.9316C21.405 13.3867 21.8631 13.5546 22.2244 13.8605C22.5857 14.1665 22.8267 14.5907 22.9046 15.0577L23.2376 17.0577C23.2854 17.3443 23.2702 17.6378 23.193 17.9179C23.1159 18.1979 22.9786 18.4578 22.7908 18.6795C22.6031 18.9011 22.3693 19.0792 22.1057 19.2014C21.8421 19.3235 21.5551 19.3868 21.2646 19.3867H17.6256" stroke="#FAFAFA" stroke-width="2" stroke-linecap="round" stroke-linejoin="round"/>
</svg>
