<svg width="49" height="49" viewBox="0 0 49 49" fill="none" xmlns="http://www.w3.org/2000/svg">
<path d="M2.79736 42.0566V6.05664C2.79736 4.99577 3.21879 3.97836 3.96894 3.22821C4.71908 2.47807 5.7365 2.05664 6.79736 2.05664H42.7974C43.8582 2.05664 44.8756 2.47807 45.6258 3.22821C46.3759 3.97836 46.7974 4.99577 46.7974 6.05664V42.0566C46.7974 43.1175 46.3759 44.1349 45.6258 44.8851C44.8756 45.6352 43.8582 46.0566 42.7974 46.0566H6.79736C5.7365 46.0566 4.71908 45.6352 3.96894 44.8851C3.21879 44.1349 2.79736 43.1175 2.79736 42.0566Z" stroke="#FAFAFA" stroke-width="1.5"/>
<path d="M30.7974 14.0566H38.7974M30.7974 31.0566H38.7974M30.7974 37.0566H38.7974M10.7974 14.0566H14.7974M14.7974 14.0566H18.7974M14.7974 14.0566V10.0566M14.7974 14.0566V18.0566M11.9694 36.8846L14.7974 34.0566M14.7974 34.0566L17.6274 31.2286M14.7974 34.0566L11.9694 31.2286M14.7974 34.0566L17.6274 36.8846" stroke="#FAFAFA" stroke-width="1.5" stroke-linecap="round" stroke-linejoin="round"/>
</svg>
