<svg width="46" height="46" viewBox="0 0 46 46" fill="none" xmlns="http://www.w3.org/2000/svg">
<path fill-rule="evenodd" clip-rule="evenodd" d="M36.75 43C38.4076 43 39.9973 42.3415 41.1694 41.1694C42.3415 39.9973 43 38.4076 43 36.75C43 35.0924 42.3415 33.5027 41.1694 32.3306C39.9973 31.1585 38.4076 30.5 36.75 30.5C35.0924 30.5 33.5027 31.1585 32.3306 32.3306C31.1585 33.5027 30.5 35.0924 30.5 36.75C30.5 38.4076 31.1585 39.9973 32.3306 41.1694C33.5027 42.3415 35.0924 43 36.75 43ZM36.75 45.5C39.0706 45.5 41.2962 44.5781 42.9372 42.9372C44.5781 41.2962 45.5 39.0706 45.5 36.75C45.5 34.4294 44.5781 32.2038 42.9372 30.5628C41.2962 28.9219 39.0706 28 36.75 28C34.4294 28 32.2038 28.9219 30.5628 30.5628C28.9219 32.2038 28 34.4294 28 36.75C28 39.0706 28.9219 41.2962 30.5628 42.9372C32.2038 44.5781 34.4294 45.5 36.75 45.5Z" fill="white"/>
<path fill-rule="evenodd" clip-rule="evenodd" d="M36.75 32.375C37.0815 32.375 37.3995 32.5067 37.6339 32.7411C37.8683 32.9755 38 33.2935 38 33.625V36.2325L38.8838 37.1163C39.1115 37.352 39.2374 37.6678 39.2346 37.9955C39.2317 38.3233 39.1003 38.6368 38.8685 38.8685C38.6368 39.1003 38.3232 39.2317 37.9955 39.2346C37.6678 39.2374 37.352 39.1115 37.1162 38.8838L35.5 37.2675V33.625C35.5 33.2935 35.6317 32.9755 35.8661 32.7411C36.1005 32.5067 36.4185 32.375 36.75 32.375ZM10.5 21.75H8V24.25H10.5V21.75ZM8 19.25C7.33696 19.25 6.70107 19.5134 6.23223 19.9822C5.76339 20.4511 5.5 21.087 5.5 21.75V24.25C5.5 24.913 5.76339 25.5489 6.23223 26.0178C6.70107 26.4866 7.33696 26.75 8 26.75H10.5C11.163 26.75 11.7989 26.4866 12.2678 26.0178C12.7366 25.5489 13 24.913 13 24.25V21.75C13 21.087 12.7366 20.4511 12.2678 19.9822C11.7989 19.5134 11.163 19.25 10.5 19.25H8ZM20.5 21.75H18V24.25H20.5V21.75ZM18 19.25C17.337 19.25 16.7011 19.5134 16.2322 19.9822C15.7634 20.4511 15.5 21.087 15.5 21.75V24.25C15.5 24.913 15.7634 25.5489 16.2322 26.0178C16.7011 26.4866 17.337 26.75 18 26.75H20.5C21.163 26.75 21.7989 26.4866 22.2678 26.0178C22.7366 25.5489 23 24.913 23 24.25V21.75C23 21.087 22.7366 20.4511 22.2678 19.9822C21.7989 19.5134 21.163 19.25 20.5 19.25H18ZM30.5 21.75H28V24.25H30.5V21.75ZM28 19.25C27.337 19.25 26.7011 19.5134 26.2322 19.9822C25.7634 20.4511 25.5 21.087 25.5 21.75V24.25C25.5 24.913 25.7634 25.5489 26.2322 26.0178C26.7011 26.4866 27.337 26.75 28 26.75H30.5C31.163 26.75 31.7989 26.4866 32.2678 26.0178C32.7366 25.5489 33 24.913 33 24.25V21.75C33 21.087 32.7366 20.4511 32.2678 19.9822C31.7989 19.5134 31.163 19.25 30.5 19.25H28ZM10.5 31.75H8V34.25H10.5V31.75ZM8 29.25C7.33696 29.25 6.70107 29.5134 6.23223 29.9822C5.76339 30.4511 5.5 31.087 5.5 31.75V34.25C5.5 34.913 5.76339 35.5489 6.23223 36.0178C6.70107 36.4866 7.33696 36.75 8 36.75H10.5C11.163 36.75 11.7989 36.4866 12.2678 36.0178C12.7366 35.5489 13 34.913 13 34.25V31.75C13 31.087 12.7366 30.4511 12.2678 29.9822C11.7989 29.5134 11.163 29.25 10.5 29.25H8ZM20.5 31.75H18V34.25H20.5V31.75ZM18 29.25C17.337 29.25 16.7011 29.5134 16.2322 29.9822C15.7634 30.4511 15.5 31.087 15.5 31.75V34.25C15.5 34.913 15.7634 35.5489 16.2322 36.0178C16.7011 36.4866 17.337 36.75 18 36.75H20.5C21.163 36.75 21.7989 36.4866 22.2678 36.0178C22.7366 35.5489 23 34.913 23 34.25V31.75C23 31.087 22.7366 30.4511 22.2678 29.9822C21.7989 29.5134 21.163 29.25 20.5 29.25H18Z" fill="white"/>
<path fill-rule="evenodd" clip-rule="evenodd" d="M3 8C3 7.66848 3.1317 7.35054 3.36612 7.11612C3.60054 6.8817 3.91848 6.75 4.25 6.75H10.5V4.25H4.25C3.25544 4.25 2.30161 4.64509 1.59835 5.34835C0.895088 6.05161 0.5 7.00544 0.5 8V38C0.5 38.9946 0.895088 39.9484 1.59835 40.6516C2.30161 41.3549 3.25544 41.75 4.25 41.75H29.5687C29.0357 40.9865 28.6284 40.1424 28.3625 39.25H4.25C3.91848 39.25 3.60054 39.1183 3.36612 38.8839C3.1317 38.6495 3 38.3315 3 38V8ZM35.5 28.0875C36.3291 27.9689 37.1709 27.9689 38 28.0875V8C38 7.00544 37.6049 6.05161 36.9016 5.34835C36.1984 4.64509 35.2446 4.25 34.25 4.25H30.5V6.75H34.25C34.5815 6.75 34.8995 6.8817 35.1339 7.11612C35.3683 7.35054 35.5 7.66848 35.5 8V28.0875ZM13 6.75H26.2038V4.25H13V6.75Z" fill="white"/>
<path fill-rule="evenodd" clip-rule="evenodd" d="M28 4.25H13V8C13 8.33152 12.8683 8.64946 12.6339 8.88388C12.3995 9.1183 12.0815 9.25 11.75 9.25C11.4185 9.25 11.1005 9.1183 10.8661 8.88388C10.6317 8.64946 10.5 8.33152 10.5 8V4.25H4.25C3.58696 4.25 2.95107 4.51339 2.48223 4.98223C2.01339 5.45107 1.75 6.08696 1.75 6.75V13C1.75 13.663 2.01339 14.2989 2.48223 14.7678C2.95107 15.2366 3.58696 15.5 4.25 15.5H34.25C34.913 15.5 35.5489 15.2366 36.0178 14.7678C36.4866 14.2989 36.75 13.663 36.75 13V6.75C36.75 6.08696 36.4866 5.45107 36.0178 4.98223C35.5489 4.51339 34.913 4.25 34.25 4.25H30.5V8C30.5 8.33152 30.3683 8.64946 30.1339 8.88388C29.8995 9.1183 29.5815 9.25 29.25 9.25C28.9185 9.25 28.6005 9.1183 28.3661 8.88388C28.1317 8.64946 28 8.33152 28 8V4.25Z" fill="white"/>
<path fill-rule="evenodd" clip-rule="evenodd" d="M38 15.5H3V13H38V15.5Z" fill="white"/>
<path d="M8 1.75C8 1.41848 8.1317 1.10054 8.36612 0.866117C8.60054 0.631696 8.91848 0.5 9.25 0.5C9.58152 0.5 9.89946 0.631696 10.1339 0.866117C10.3683 1.10054 10.5 1.41848 10.5 1.75V6.75C10.5 7.08152 10.3683 7.39946 10.1339 7.63388C9.89946 7.8683 9.58152 8 9.25 8C8.91848 8 8.60054 7.8683 8.36612 7.63388C8.1317 7.39946 8 7.08152 8 6.75V1.75ZM25.5 1.75C25.5 1.41848 25.6317 1.10054 25.8661 0.866117C26.1005 0.631696 26.4185 0.5 26.75 0.5C27.0815 0.5 27.3995 0.631696 27.6339 0.866117C27.8683 1.10054 28 1.41848 28 1.75V6.75C28 7.08152 27.8683 7.39946 27.6339 7.63388C27.3995 7.8683 27.0815 8 26.75 8C26.4185 8 26.1005 7.8683 25.8661 7.63388C25.6317 7.39946 25.5 7.08152 25.5 6.75V1.75Z" fill="white"/>
</svg>
