<svg width="25" height="19" viewBox="0 0 25 19" fill="none" xmlns="http://www.w3.org/2000/svg">
<path d="M0.625488 2.63672C0.625488 2.03998 0.862541 1.46769 1.2845 1.04573C1.70645 0.623772 2.27875 0.386719 2.87549 0.386719H16.3755C16.9722 0.386719 17.5445 0.623772 17.9665 1.04573C18.3884 1.46769 18.6255 2.03998 18.6255 2.63672V4.88672H20.1555C20.4926 4.88702 20.8253 4.96307 21.1291 5.10924C21.4329 5.25541 21.6999 5.46797 21.9105 5.73122L24.132 8.50622C24.4516 8.9055 24.6257 9.40176 24.6255 9.91322V13.1367C24.6255 13.7335 24.3884 14.3058 23.9665 14.7277C23.5445 15.1497 22.9722 15.3867 22.3755 15.3867H21.6255C21.6255 16.1824 21.3094 16.9454 20.7468 17.508C20.1842 18.0706 19.4211 18.3867 18.6255 18.3867C17.8298 18.3867 17.0668 18.0706 16.5042 17.508C15.9416 16.9454 15.6255 16.1824 15.6255 15.3867H8.12549C8.12635 15.7866 8.04726 16.1826 7.89287 16.5515C7.73848 16.9203 7.5119 17.2546 7.22646 17.5347C6.94102 17.8147 6.60247 18.0349 6.23072 18.1822C5.85897 18.3295 5.46151 18.401 5.06173 18.3925C4.66194 18.384 4.26789 18.2957 3.90273 18.1327C3.53758 17.9697 3.20869 17.7354 2.93541 17.4434C2.66213 17.1515 2.44996 16.8079 2.31139 16.4328C2.17282 16.0577 2.11063 15.6587 2.12849 15.2592C1.68906 15.1046 1.30847 14.8173 1.03925 14.4371C0.770037 14.0569 0.625463 13.6026 0.625488 13.1367L0.625488 2.63672ZM2.56649 13.8207C2.83769 13.3767 3.21976 13.0109 3.67514 12.7593C4.13052 12.5076 4.64354 12.3788 5.16378 12.3855C5.68402 12.3921 6.19358 12.534 6.64237 12.7972C7.09116 13.0605 7.46374 13.4359 7.72349 13.8867H16.0275C16.2913 13.4311 16.6699 13.0526 17.1255 12.7887V2.63672C17.1255 2.43781 17.0465 2.24704 16.9058 2.10639C16.7652 1.96574 16.5744 1.88672 16.3755 1.88672H2.87549C2.67658 1.88672 2.48581 1.96574 2.34516 2.10639C2.20451 2.24704 2.12549 2.43781 2.12549 2.63672V13.1367C2.12537 13.2811 2.16692 13.4224 2.24514 13.5437C2.32337 13.6651 2.43495 13.7612 2.56649 13.8207ZM18.6255 12.3867C19.1521 12.3867 19.6694 12.5254 20.1254 12.7887C20.5815 13.052 20.9602 13.4307 21.2235 13.8867H22.3755C22.5744 13.8867 22.7652 13.8077 22.9058 13.667C23.0465 13.5264 23.1255 13.3356 23.1255 13.1367V9.91172C23.1252 9.74152 23.067 9.57648 22.9605 9.44372L20.7405 6.66872C20.6703 6.58088 20.5814 6.50993 20.4801 6.46112C20.3788 6.4123 20.2679 6.38688 20.1555 6.38672H18.6255V12.3867ZM5.12549 13.8867C4.72766 13.8867 4.34613 14.0448 4.06483 14.3261C3.78352 14.6074 3.62549 14.9889 3.62549 15.3867C3.62549 15.7845 3.78352 16.1661 4.06483 16.4474C4.34613 16.7287 4.72766 16.8867 5.12549 16.8867C5.52331 16.8867 5.90484 16.7287 6.18615 16.4474C6.46745 16.1661 6.62549 15.7845 6.62549 15.3867C6.62549 14.9889 6.46745 14.6074 6.18615 14.3261C5.90484 14.0448 5.52331 13.8867 5.12549 13.8867ZM18.6255 13.8867C18.2277 13.8867 17.8461 14.0448 17.5648 14.3261C17.2835 14.6074 17.1255 14.9889 17.1255 15.3867C17.1255 15.7845 17.2835 16.1661 17.5648 16.4474C17.8461 16.7287 18.2277 16.8867 18.6255 16.8867C19.0233 16.8867 19.4048 16.7287 19.6861 16.4474C19.9675 16.1661 20.1255 15.7845 20.1255 15.3867C20.1255 14.9889 19.9675 14.6074 19.6861 14.3261C19.4048 14.0448 19.0233 13.8867 18.6255 13.8867Z" fill="#FAFAFA"/>
</svg>
