<svg width="19" height="19" viewBox="0 0 19 19" fill="none" xmlns="http://www.w3.org/2000/svg">
<path d="M1.67549 18.3867C1.37549 18.3867 1.12549 18.2867 0.925488 18.0867C0.725488 17.8867 0.625488 17.6367 0.625488 17.3367V13.2867C0.625488 13.0534 0.700488 12.8491 0.850488 12.6737C1.00049 12.4984 1.19215 12.3861 1.42549 12.3367L4.87549 11.6367C5.10882 11.6034 5.34649 11.6244 5.58849 11.6997C5.83049 11.7751 6.02615 11.8874 6.17549 12.0367L8.52549 14.3867C9.79215 13.6201 10.9548 12.7117 12.0135 11.6617C13.0722 10.6117 13.9512 9.48672 14.6505 8.28672L12.2255 5.83672C12.0755 5.68672 11.9798 5.51572 11.9385 5.32372C11.8972 5.13172 11.8928 4.91939 11.9255 4.68672L12.5755 1.18672C12.6088 0.953385 12.7172 0.761719 12.9005 0.611719C13.0838 0.461719 13.2922 0.386719 13.5255 0.386719H17.5755C17.8755 0.386719 18.1255 0.486719 18.3255 0.686719C18.5255 0.886719 18.6255 1.13672 18.6255 1.43672C18.6255 3.58672 18.1462 5.68272 17.1875 7.72472C16.2288 9.76672 14.9622 11.5751 13.3875 13.1497C11.8128 14.7244 10.0045 15.9911 7.96249 16.9497C5.92049 17.9084 3.82482 18.3874 1.67549 18.3867ZM15.6005 6.38672C15.8838 5.73672 16.1005 5.07839 16.2505 4.41172C16.4005 3.74505 16.5172 3.07005 16.6005 2.38672H14.3755L13.9505 4.73672L15.6005 6.38672ZM6.65049 15.3367L4.97549 13.6617L2.62549 14.1367V16.3367C3.30882 16.2867 3.98816 16.1784 4.66349 16.0117C5.33882 15.8451 6.00115 15.6201 6.65049 15.3367Z" fill="#FAFAFA"/>
</svg>
