<svg width="50" height="38" viewBox="0 0 50 38" fill="none" xmlns="http://www.w3.org/2000/svg">
<path d="M15.625 19C17.2826 19 18.8723 18.3415 20.0444 17.1694C21.2165 15.9973 21.875 14.4076 21.875 12.75C21.875 11.0924 21.2165 9.50268 20.0444 8.33058C18.8723 7.15848 17.2826 6.5 15.625 6.5C13.9674 6.5 12.3777 7.15848 11.2056 8.33058C10.0335 9.50268 9.375 11.0924 9.375 12.75C9.375 14.4076 10.0335 15.9973 11.2056 17.1694C12.3777 18.3415 13.9674 19 15.625 19ZM28.125 11.1875C28.125 10.7731 28.2896 10.3757 28.5826 10.0826C28.8757 9.78962 29.2731 9.625 29.6875 9.625H42.1875C42.6019 9.625 42.9993 9.78962 43.2924 10.0826C43.5854 10.3757 43.75 10.7731 43.75 11.1875C43.75 11.6019 43.5854 11.9993 43.2924 12.2924C42.9993 12.5854 42.6019 12.75 42.1875 12.75H29.6875C29.2731 12.75 28.8757 12.5854 28.5826 12.2924C28.2896 11.9993 28.125 11.6019 28.125 11.1875ZM28.125 19C28.125 18.5856 28.2896 18.1882 28.5826 17.8951C28.8757 17.6021 29.2731 17.4375 29.6875 17.4375H42.1875C42.6019 17.4375 42.9993 17.6021 43.2924 17.8951C43.5854 18.1882 43.75 18.5856 43.75 19C43.75 19.4144 43.5854 19.8118 43.2924 20.1049C42.9993 20.3979 42.6019 20.5625 42.1875 20.5625H29.6875C29.2731 20.5625 28.8757 20.3979 28.5826 20.1049C28.2896 19.8118 28.125 19.4144 28.125 19ZM31.25 26.8125C31.25 26.3981 31.4146 26.0007 31.7076 25.7076C32.0007 25.4146 32.3981 25.25 32.8125 25.25H42.1875C42.6019 25.25 42.9993 25.4146 43.2924 25.7076C43.5854 26.0007 43.75 26.3981 43.75 26.8125C43.75 27.2269 43.5854 27.6243 43.2924 27.9174C42.9993 28.2104 42.6019 28.375 42.1875 28.375H32.8125C32.3981 28.375 32.0007 28.2104 31.7076 27.9174C31.4146 27.6243 31.25 27.2269 31.25 26.8125Z" fill="white"/>
<path d="M6.25 0.25C4.5924 0.25 3.00269 0.90848 1.83058 2.08058C0.65848 3.25268 0 4.8424 0 6.5L0 31.5C0 33.1576 0.65848 34.7473 1.83058 35.9194C3.00269 37.0915 4.5924 37.75 6.25 37.75H43.75C45.4076 37.75 46.9973 37.0915 48.1694 35.9194C49.3415 34.7473 50 33.1576 50 31.5V6.5C50 4.8424 49.3415 3.25268 48.1694 2.08058C46.9973 0.90848 45.4076 0.25 43.75 0.25H6.25ZM3.125 6.5C3.125 5.6712 3.45424 4.87634 4.04029 4.29029C4.62634 3.70424 5.4212 3.375 6.25 3.375H43.75C44.5788 3.375 45.3737 3.70424 45.9597 4.29029C46.5458 4.87634 46.875 5.6712 46.875 6.5V31.5C46.875 32.3288 46.5458 33.1237 45.9597 33.7097C45.3737 34.2958 44.5788 34.625 43.75 34.625H28C28.0812 34.1156 28.125 33.5938 28.125 33.0625C28.125 27.0219 22.5312 22.125 15.625 22.125C9.10625 22.125 3.75 26.4937 3.175 32.0656C3.14131 31.879 3.12457 31.6897 3.125 31.5V6.5Z" fill="white"/>
</svg>
