<svg width="50" height="38" viewBox="0 0 50 38" fill="none" xmlns="http://www.w3.org/2000/svg">
<path d="M6.25 0.25C4.5924 0.25 3.00269 0.90848 1.83058 2.08058C0.65848 3.25268 0 4.8424 0 6.5L0 31.5C0 33.1576 0.65848 34.7473 1.83058 35.9194C3.00269 37.0915 4.5924 37.75 6.25 37.75H43.75C45.4076 37.75 46.9973 37.0915 48.1694 35.9194C49.3415 34.7473 50 33.1576 50 31.5V6.5C50 4.8424 49.3415 3.25268 48.1694 2.08058C46.9973 0.90848 45.4076 0.25 43.75 0.25H6.25ZM3.125 6.5C3.125 5.6712 3.45424 4.87634 4.04029 4.29029C4.62634 3.70424 5.4212 3.375 6.25 3.375H43.75C44.5788 3.375 45.3737 3.70424 45.9597 4.29029C46.5458 4.87634 46.875 5.6712 46.875 6.5V31.5C46.875 32.3288 46.5458 33.1237 45.9597 33.7097C45.3737 34.2958 44.5788 34.625 43.75 34.625H28C28.0812 34.1156 28.125 33.5938 28.125 33.0625C28.125 27.0219 22.5312 22.125 15.625 22.125C9.10625 22.125 3.75 26.4937 3.175 32.0656C3.14131 31.879 3.12457 31.6897 3.125 31.5V6.5Z" fill="white"/>
</svg>
