<svg width="25" height="25" viewBox="0 0 25 25" fill="none" xmlns="http://www.w3.org/2000/svg">
<path d="M14.5122 14.2031C13.8247 13.6172 13.063 13.168 12.2271 12.8555C11.3911 12.543 10.5239 12.3867 9.62549 12.3867C8.93799 12.3867 8.27393 12.4766 7.6333 12.6562C6.99268 12.8359 6.39502 13.0859 5.84033 13.4062C5.28564 13.7266 4.78174 14.1172 4.32861 14.5781C3.87549 15.0391 3.48486 15.5469 3.15674 16.1016C2.82861 16.6562 2.57471 17.2539 2.39502 17.8945C2.21533 18.5352 2.12549 19.1992 2.12549 19.8867H0.625488C0.625488 18.9492 0.762207 18.0469 1.03564 17.1797C1.30908 16.3125 1.70361 15.5117 2.21924 14.7773C2.73486 14.043 3.34424 13.3906 4.04736 12.8203C4.75049 12.25 5.54736 11.8008 6.43799 11.4727C5.55518 10.8945 4.86768 10.168 4.37549 9.29297C3.8833 8.41797 3.6333 7.44922 3.62549 6.38672C3.62549 5.55859 3.78174 4.78125 4.09424 4.05469C4.40674 3.32812 4.83252 2.69141 5.37158 2.14453C5.91064 1.59766 6.54736 1.16797 7.28174 0.855469C8.01611 0.542969 8.79736 0.386719 9.62549 0.386719C10.4536 0.386719 11.231 0.542969 11.9575 0.855469C12.6841 1.16797 13.3208 1.59375 13.8677 2.13281C14.4146 2.67188 14.8442 3.30859 15.1567 4.04297C15.4692 4.77734 15.6255 5.55859 15.6255 6.38672C15.6255 6.90234 15.563 7.40625 15.438 7.89844C15.313 8.39062 15.1255 8.85547 14.8755 9.29297C14.6255 9.73047 14.3325 10.1328 13.9966 10.5C13.6606 10.8672 13.2661 11.1914 12.813 11.4727C13.3208 11.668 13.8052 11.9062 14.2661 12.1875C14.7271 12.4688 15.1606 12.7852 15.5669 13.1367L14.5122 14.2031ZM5.12549 6.38672C5.12549 7.01172 5.24268 7.59375 5.47705 8.13281C5.71143 8.67188 6.03174 9.14844 6.43799 9.5625C6.84424 9.97656 7.3208 10.3008 7.86768 10.5352C8.41455 10.7695 9.00049 10.8867 9.62549 10.8867C10.2427 10.8867 10.8247 10.7695 11.3716 10.5352C11.9185 10.3008 12.395 9.98047 12.8013 9.57422C13.2075 9.16797 13.5317 8.69141 13.7739 8.14453C14.0161 7.59766 14.1333 7.01172 14.1255 6.38672C14.1255 5.76953 14.0083 5.1875 13.7739 4.64062C13.5396 4.09375 13.2192 3.61719 12.813 3.21094C12.4067 2.80469 11.9263 2.48047 11.3716 2.23828C10.8169 1.99609 10.2349 1.87891 9.62549 1.88672C9.00049 1.88672 8.41846 2.00391 7.87939 2.23828C7.34033 2.47266 6.86377 2.79297 6.44971 3.19922C6.03564 3.60547 5.71143 4.08594 5.47705 4.64062C5.24268 5.19531 5.12549 5.77734 5.12549 6.38672ZM20.8755 9.38672C21.3911 9.38672 21.8755 9.48438 22.3286 9.67969C22.7817 9.875 23.1763 10.1445 23.5122 10.4883C23.8481 10.832 24.1177 11.2305 24.3208 11.6836C24.5239 12.1367 24.6255 12.6211 24.6255 13.1367C24.6255 13.6523 24.5278 14.1367 24.3325 14.5898C24.1372 15.043 23.8677 15.4414 23.5239 15.7852C23.1802 16.1289 22.7817 16.3984 22.3286 16.5938C21.8755 16.7891 21.3911 16.8867 20.8755 16.8867C20.6958 16.8867 20.52 16.875 20.3481 16.8516L13.4692 23.7305C13.2583 23.9414 13.0161 24.1016 12.7427 24.2109C12.4692 24.3203 12.1802 24.3789 11.8755 24.3867C11.563 24.3867 11.27 24.3281 10.9966 24.2109C10.7231 24.0938 10.4849 23.9336 10.2817 23.7305C10.0786 23.5273 9.91846 23.2891 9.80127 23.0156C9.68408 22.7422 9.62549 22.4492 9.62549 22.1367C9.62549 21.8398 9.68018 21.5547 9.78955 21.2812C9.89893 21.0078 10.063 20.7617 10.2817 20.543L17.1606 13.6641C17.1372 13.4922 17.1255 13.3164 17.1255 13.1367C17.1255 12.6211 17.2231 12.1367 17.4185 11.6836C17.6138 11.2305 17.8794 10.8359 18.2153 10.5C18.5513 10.1641 18.9497 9.89453 19.4106 9.69141C19.8716 9.48828 20.3599 9.38672 20.8755 9.38672ZM20.8755 15.3867C21.188 15.3867 21.481 15.3281 21.7544 15.2109C22.0278 15.0938 22.2661 14.9336 22.4692 14.7305C22.6724 14.5273 22.8325 14.2891 22.9497 14.0156C23.0669 13.7422 23.1255 13.4492 23.1255 13.1367C23.1255 12.8164 23.0513 12.4961 22.9028 12.1758L21.1919 13.8867H20.1255V12.8203L21.8364 11.1094C21.5161 10.9609 21.1958 10.8867 20.8755 10.8867C20.563 10.8867 20.27 10.9453 19.9966 11.0625C19.7231 11.1797 19.4849 11.3398 19.2817 11.543C19.0786 11.7461 18.9185 11.9844 18.8013 12.2578C18.6841 12.5312 18.6255 12.8242 18.6255 13.1367C18.6255 13.457 18.6997 13.7773 18.8481 14.0977L11.3481 21.6094C11.1997 21.7578 11.1255 21.9336 11.1255 22.1367C11.1255 22.3398 11.1997 22.5156 11.3481 22.6641C11.4966 22.8125 11.6724 22.8867 11.8755 22.8867C12.0786 22.8867 12.2544 22.8125 12.4028 22.6641L19.9146 15.1641C20.2349 15.3125 20.5552 15.3867 20.8755 15.3867Z" fill="#FAFAFA"/>
</svg>
