<svg width="121" height="120" viewBox="0 0 121 120" fill="none" xmlns="http://www.w3.org/2000/svg">
<g clip-path="url(#clip0_1005_4039)">
<path d="M60.5 6.6665C49.9517 6.6665 39.6402 9.79445 30.8696 15.6548C22.099 21.5151 15.2631 29.8447 11.2264 39.5901C7.18973 49.3354 6.13356 60.059 8.19144 70.4047C10.2493 80.7503 15.3288 90.2534 22.7876 97.7122C30.2464 105.171 39.7495 110.251 50.0952 112.308C60.4408 114.366 71.1644 113.31 80.9098 109.273C90.6552 105.237 98.9847 98.4009 104.845 89.6303C110.705 80.8596 113.833 70.5482 113.833 59.9998C113.833 45.855 108.214 32.2894 98.2124 22.2875C88.2104 12.2855 74.6449 6.6665 60.5 6.6665ZM60.5 106.667C51.2702 106.667 42.2477 103.93 34.5734 98.8018C26.8991 93.674 20.9177 86.3856 17.3856 77.8584C13.8535 69.3312 12.9294 59.9481 14.73 50.8956C16.5306 41.8432 20.9752 33.528 27.5017 27.0015C34.0281 20.4751 42.3433 16.0305 51.3958 14.2299C60.4482 12.4292 69.8313 13.3534 78.3586 16.8855C86.8858 20.4176 94.1741 26.3989 99.3019 34.0732C104.43 41.7475 107.167 50.77 107.167 59.9998C107.167 72.3766 102.25 84.2465 93.4983 92.9982C84.7466 101.75 72.8768 106.667 60.5 106.667Z" fill="#0484CD"/>
<path d="M93.8333 40.3336C93.2088 39.7127 92.3639 39.3643 91.4833 39.3643C90.6027 39.3643 89.7578 39.7127 89.1333 40.3336L52.1333 77.1669L32.1333 57.1669C31.5233 56.5083 30.6766 56.119 29.7796 56.0846C28.8825 56.0502 28.0086 56.3736 27.35 56.9836C26.6913 57.5936 26.302 58.4402 26.2676 59.3373C26.2332 60.2343 26.5566 61.1083 27.1666 61.7669L52.1333 86.6669L93.8333 45.0669C94.1457 44.757 94.3937 44.3884 94.5629 43.9822C94.7322 43.576 94.8193 43.1403 94.8193 42.7002C94.8193 42.2602 94.7322 41.8245 94.5629 41.4183C94.3937 41.0121 94.1457 40.6434 93.8333 40.3336Z" fill="#0484CD"/>
</g>
<defs>
<clipPath id="clip0_1005_4039">
<rect width="120" height="120" fill="white" transform="translate(0.5)"/>
</clipPath>
</defs>
</svg>
