<svg width="80" height="60" viewBox="0 0 80 60" fill="none" xmlns="http://www.w3.org/2000/svg">
<path d="M25 30C27.6522 30 30.1957 28.9464 32.0711 27.0711C33.9464 25.1957 35 22.6522 35 20C35 17.3478 33.9464 14.8043 32.0711 12.9289C30.1957 11.0536 27.6522 10 25 10C22.3478 10 19.8043 11.0536 17.9289 12.9289C16.0536 14.8043 15 17.3478 15 20C15 22.6522 16.0536 25.1957 17.9289 27.0711C19.8043 28.9464 22.3478 30 25 30ZM45 17.5C45 16.837 45.2634 16.2011 45.7322 15.7322C46.2011 15.2634 46.837 15 47.5 15H67.5C68.163 15 68.7989 15.2634 69.2678 15.7322C69.7366 16.2011 70 16.837 70 17.5C70 18.163 69.7366 18.7989 69.2678 19.2678C68.7989 19.7366 68.163 20 67.5 20H47.5C46.837 20 46.2011 19.7366 45.7322 19.2678C45.2634 18.7989 45 18.163 45 17.5ZM45 30C45 29.337 45.2634 28.7011 45.7322 28.2322C46.2011 27.7634 46.837 27.5 47.5 27.5H67.5C68.163 27.5 68.7989 27.7634 69.2678 28.2322C69.7366 28.7011 70 29.337 70 30C70 30.663 69.7366 31.2989 69.2678 31.7678C68.7989 32.2366 68.163 32.5 67.5 32.5H47.5C46.837 32.5 46.2011 32.2366 45.7322 31.7678C45.2634 31.2989 45 30.663 45 30ZM50 42.5C50 41.837 50.2634 41.2011 50.7322 40.7322C51.2011 40.2634 51.837 40 52.5 40H67.5C68.163 40 68.7989 40.2634 69.2678 40.7322C69.7366 41.2011 70 41.837 70 42.5C70 43.163 69.7366 43.7989 69.2678 44.2678C68.7989 44.7366 68.163 45 67.5 45H52.5C51.837 45 51.2011 44.7366 50.7322 44.2678C50.2634 43.7989 50 43.163 50 42.5Z" fill="#1F1F1F"/>
<path d="M10 0C7.34784 0 4.8043 1.05357 2.92893 2.92893C1.05357 4.8043 0 7.34784 0 10L0 50C0 52.6522 1.05357 55.1957 2.92893 57.0711C4.8043 58.9464 7.34784 60 10 60H70C72.6522 60 75.1957 58.9464 77.0711 57.0711C78.9464 55.1957 80 52.6522 80 50V10C80 7.34784 78.9464 4.8043 77.0711 2.92893C75.1957 1.05357 72.6522 0 70 0H10ZM5 10C5 8.67392 5.52678 7.40215 6.46447 6.46447C7.40215 5.52678 8.67392 5 10 5H70C71.3261 5 72.5978 5.52678 73.5355 6.46447C74.4732 7.40215 75 8.67392 75 10V50C75 51.3261 74.4732 52.5979 73.5355 53.5355C72.5978 54.4732 71.3261 55 70 55H44.8C44.93 54.185 45 53.35 45 52.5C45 42.835 36.05 35 25 35C14.57 35 6 41.99 5.08 50.905C5.02609 50.6064 4.99931 50.3035 5 50V10Z" fill="#1F1F1F"/>
</svg>
