<svg width="80" height="80" viewBox="0 0 80 80" fill="none" xmlns="http://www.w3.org/2000/svg">
<path d="M47.8533 8.64965C47.9236 8.56119 48.0112 8.48796 48.1107 8.4344C48.2102 8.38084 48.3196 8.34807 48.4321 8.3381C48.5447 8.32812 48.6581 8.34114 48.7654 8.37636C48.8728 8.41158 48.9719 8.46827 49.0567 8.54298L52.1267 11.2496L42.4633 23.333H48.8667L55.8867 14.5596L61.3933 19.4163C61.5562 19.5602 61.6564 19.762 61.6726 19.9787C61.6887 20.1954 61.6196 20.4098 61.48 20.5763L59.18 23.333H65.66C66.4627 22.1579 66.8081 20.7299 66.6313 19.3179C66.4545 17.9059 65.7676 16.6072 64.7 15.6663L52.3667 4.78965C51.7717 4.26566 51.0761 3.86845 50.3225 3.62229C49.5689 3.37613 48.773 3.28617 47.9834 3.35792C47.1938 3.42967 46.4272 3.66162 45.7303 4.0396C45.0333 4.41758 44.4208 4.93366 43.93 5.55631L29.92 23.333H36.2867L47.8533 8.64965ZM54.1667 46.6663C53.5036 46.6663 52.8677 46.9297 52.3989 47.3985C51.9301 47.8674 51.6667 48.5033 51.6667 49.1663C51.6667 49.8294 51.9301 50.4652 52.3989 50.9341C52.8677 51.4029 53.5036 51.6663 54.1667 51.6663H60.8333C61.4964 51.6663 62.1323 51.4029 62.6011 50.9341C63.0699 50.4652 63.3333 49.8294 63.3333 49.1663C63.3333 48.5033 63.0699 47.8674 62.6011 47.3985C62.1323 46.9297 61.4964 46.6663 60.8333 46.6663H54.1667ZM15 24.1663C15 23.5033 15.2634 22.8674 15.7322 22.3985C16.2011 21.9297 16.837 21.6663 17.5 21.6663H27.9267L31.9 16.6663H17.5C15.5109 16.6663 13.6032 17.4565 12.1967 18.863C10.7902 20.2695 10 22.1772 10 24.1663V59.1663C10 62.0395 11.1414 64.795 13.173 66.8266C15.2047 68.8583 17.9602 69.9996 20.8333 69.9996H60.8333C63.7065 69.9996 66.462 68.8583 68.4937 66.8266C70.5253 64.795 71.6667 62.0395 71.6667 59.1663V37.4996C71.6667 34.6265 70.5253 31.871 68.4937 29.8393C66.462 27.8077 63.7065 26.6663 60.8333 26.6663H17.5C16.837 26.6663 16.2011 26.4029 15.7322 25.9341C15.2634 25.4652 15 24.8294 15 24.1663ZM15 59.1663V31.2396C15.7833 31.5163 16.6233 31.6663 17.5 31.6663H60.8333C64.0533 31.6663 66.6667 34.2796 66.6667 37.4996V59.1663C66.6667 60.7134 66.0521 62.1971 64.9581 63.2911C63.8642 64.3851 62.3804 64.9996 60.8333 64.9996H20.8333C19.2862 64.9996 17.8025 64.3851 16.7085 63.2911C15.6146 62.1971 15 60.7134 15 59.1663Z" fill="#1F1F1F"/>
</svg>
